<svg width="500" height="500" viewBox="0 0 500 500" fill="none" xmlns="http://www.w3.org/2000/svg">
<g id="ideas 1" clip-path="url(#clip0)">
<g id="OBJECTS">
<g id="Group">
<path id="Vector" d="M59.869 273.488C59.869 211.388 111.469 161.388 174.069 163.788C229.869 165.988 275.769 210.788 279.169 266.488C281.269 300.688 267.769 331.688 245.069 353.088C221.369 375.588 208.069 406.888 208.069 439.588V443.288H131.269V439.588C131.269 406.388 117.069 375.188 93.269 352.088C72.669 332.288 59.869 304.388 59.869 273.488Z" fill="#FFBE55"/>
</g>
<path id="Vector_2" d="M113.469 179.188C95.169 208.288 88.069 244.388 94.569 278.188C96.069 285.888 98.169 293.488 101.669 300.488C105.969 309.188 112.269 316.888 119.469 323.488C143.569 345.688 178.669 355.288 210.769 348.488C236.369 343.088 259.469 327.388 274.469 305.988C268.869 324.188 258.569 340.388 245.069 353.188C221.369 375.688 208.069 406.988 208.069 439.688V443.388H131.269V439.688C131.269 406.488 117.069 375.288 93.269 352.188C72.669 332.288 59.969 304.288 59.969 273.388C59.869 233.388 81.369 198.288 113.469 179.188Z" fill="#F7AC37"/>
<g id="light">
<path id="Vector_3" d="M194.469 209.988C191.169 206.588 187.769 202.888 186.969 198.288C185.469 189.688 194.069 181.888 202.769 181.188C211.469 180.488 219.769 184.988 226.869 190.088C235.769 196.488 243.869 203.988 250.869 212.388C254.969 217.288 258.869 223.988 256.069 229.688C253.769 234.488 247.769 236.188 242.469 236.288C233.069 236.488 223.869 233.088 215.969 228.188C207.869 223.188 201.069 216.688 194.469 209.988Z" fill="#FFCC83"/>
<path id="Vector_4" d="M159.769 184.088C158.969 181.788 158.969 179.088 160.169 176.188C166.169 162.488 190.869 172.988 183.869 186.388C178.769 196.388 162.969 192.988 159.769 184.088Z" fill="#FFCC83"/>
<path id="Vector_5" d="M236.469 206.188C239.069 208.888 241.469 212.288 240.969 215.888C240.869 216.688 240.569 217.488 239.969 218.088C239.369 218.788 238.469 219.188 237.669 219.388C233.269 220.688 228.369 219.488 224.369 217.188C220.369 214.888 217.169 211.488 213.969 208.088C212.469 206.588 210.969 204.988 210.069 203.088C209.169 201.188 208.969 198.788 210.069 196.988C214.569 194.888 219.969 195.388 224.569 197.288C229.069 199.288 232.969 202.588 236.469 206.188Z" fill="white"/>
<path id="Vector_6" d="M166.669 184.288C166.269 183.688 165.969 183.088 165.769 182.388C164.769 178.388 168.169 174.688 172.169 175.088C176.269 175.488 181.469 182.488 177.169 185.788C174.169 188.088 168.869 187.288 166.669 184.288Z" fill="white"/>
</g>
<path id="Vector_7" d="M216.269 323.688C217.669 321.188 221.169 323.388 220.069 325.888C204.169 360.488 198.569 395.288 197.969 433.188C197.869 437.188 192.369 436.988 191.969 433.188C187.669 395.688 197.969 356.288 216.269 323.688Z" fill="white"/>
<path id="Vector_8" d="M124.069 323.688C122.669 321.188 119.169 323.388 120.269 325.888C136.169 360.488 141.769 395.288 142.369 433.188C142.469 437.188 147.969 436.988 148.369 433.188C152.569 395.688 142.269 356.288 124.069 323.688Z" fill="white"/>
<path id="Vector_9" d="M169.669 507.188C179.665 507.188 187.769 499.084 187.769 489.088C187.769 479.092 179.665 470.988 169.669 470.988C159.673 470.988 151.569 479.092 151.569 489.088C151.569 499.084 159.673 507.188 169.669 507.188Z" fill="#0A486F"/>
<path id="Vector_10" d="M187.769 489.388C187.569 499.288 179.569 507.288 169.669 507.288C164.569 507.288 159.869 505.188 156.569 501.688C157.669 501.888 158.769 502.088 159.969 502.188C163.969 502.388 167.869 501.588 171.669 500.388C176.669 498.888 182.169 496.288 183.569 491.288L187.769 489.388Z" fill="#0F538C"/>
<path id="Vector_11" d="M143.169 425.888H196.169C203.269 425.888 208.969 431.588 208.969 438.688V480.488C208.969 487.588 203.269 493.288 196.169 493.288H143.169C136.069 493.288 130.369 487.588 130.369 480.488V438.688C130.369 431.588 136.069 425.888 143.169 425.888Z" fill="#1E0F00"/>
<path id="Vector_12" d="M166.569 458.588C175.069 470.188 183.669 481.788 192.169 493.388H143.169C136.069 493.388 130.369 487.688 130.369 480.588V438.788C130.369 432.288 135.169 426.988 141.369 426.188C150.269 436.488 158.369 447.488 166.569 458.588Z" fill="#1E0F00"/>
<path id="Vector_13" d="M133.369 439.388H205.969C209.769 439.388 212.769 442.488 212.769 446.188C212.769 449.988 209.669 452.988 205.969 452.988H133.369C129.569 452.988 126.569 449.888 126.569 446.188C126.569 442.388 129.569 439.388 133.369 439.388Z" fill="#0A486F"/>
<path id="Vector_14" d="M164.169 439.388H205.969C209.769 439.388 212.769 442.488 212.769 446.188C212.769 449.988 209.669 452.988 205.969 452.988H181.069C175.469 448.488 169.869 443.788 164.169 439.388Z" fill="#0F538C"/>
<path id="Vector_15" d="M133.369 464.088H205.969C209.769 464.088 212.769 467.188 212.769 470.888C212.769 474.688 209.669 477.688 205.969 477.688H133.369C129.569 477.688 126.569 474.588 126.569 470.888C126.569 467.188 129.569 464.088 133.369 464.088Z" fill="#0A486F"/>
<path id="Vector_16" d="M164.169 464.088H205.969C209.769 464.088 212.769 467.188 212.769 470.888C212.769 474.688 209.669 477.688 205.969 477.688H181.069C175.469 473.188 169.869 468.588 164.169 464.088Z" fill="#0F538C"/>
<path id="Vector_17" d="M130.469 323.188C136.569 323.988 143.069 323.588 148.569 321.488C155.069 326.688 163.069 329.988 171.469 329.888C180.769 329.788 190.169 327.588 196.369 321.088C199.669 321.388 203.269 321.188 206.769 320.788C208.169 320.588 208.269 318.588 206.769 318.588C204.069 318.588 201.469 318.488 198.769 318.188C199.569 317.088 200.269 315.888 200.869 314.588C204.669 306.488 199.069 298.488 191.269 296.588C184.569 294.888 177.669 303.088 180.069 309.588C182.069 315.088 185.669 318.188 190.069 319.788C189.369 320.388 188.769 320.988 188.169 321.788C180.969 324.988 172.569 326.588 164.769 324.188C161.069 323.088 156.869 321.488 153.169 319.188C157.069 316.588 159.869 312.588 160.969 307.088C162.469 299.188 153.569 292.188 146.269 294.188C138.069 296.488 137.069 308.388 141.469 314.288C142.369 315.488 143.469 316.688 144.469 317.888C143.069 317.988 141.269 318.088 139.269 318.088C136.269 318.088 133.369 318.388 130.469 318.688C127.469 318.888 127.569 322.788 130.469 323.188Z" fill="white"/>
<path id="Vector_18" d="M149.469 300.088C151.269 300.288 152.669 301.488 153.569 302.988C154.169 303.988 154.469 306.288 153.169 306.888C152.969 306.988 152.669 306.988 152.469 306.888C151.869 306.388 151.869 305.888 151.469 305.188C151.069 304.288 150.369 303.688 149.369 303.288C147.369 302.588 146.169 304.988 145.269 306.288C144.769 307.088 143.369 306.988 143.169 305.988C142.369 302.588 146.269 299.588 149.469 300.088Z" fill="#FFBE55"/>
<path id="Vector_19" d="M191.769 302.388C193.569 302.588 194.969 303.788 195.869 305.288C196.469 306.288 196.769 308.588 195.469 309.188C195.269 309.288 194.969 309.288 194.769 309.188C194.169 308.688 194.169 308.188 193.769 307.488C193.369 306.588 192.669 305.988 191.669 305.588C189.669 304.888 188.469 307.288 187.569 308.588C187.069 309.388 185.669 309.288 185.469 308.288C184.669 304.888 188.569 301.988 191.769 302.388Z" fill="#FFBE55"/>
<g id="spark">
<path id="Vector_20" d="M285.269 356.988C290.469 356.988 294.969 361.988 298.769 365.288C303.369 369.188 309.069 373.188 310.769 379.188C311.869 383.188 308.169 386.588 304.269 385.688C298.669 384.388 294.669 379.388 290.969 375.288C287.269 371.288 281.569 366.688 281.269 360.988C281.169 358.788 283.169 356.988 285.269 356.988Z" fill="#FFBE55"/>
<path id="Vector_21" d="M309.769 281.388C313.069 277.888 318.869 278.288 323.469 277.888C329.369 277.388 335.369 276.788 340.069 280.788C342.569 282.788 341.269 286.288 339.169 287.888C334.669 291.288 328.669 289.988 323.469 289.588C319.069 289.188 312.969 289.288 309.769 285.688C308.669 284.388 308.569 282.588 309.769 281.388Z" fill="#FFBE55"/>
<path id="Vector_22" d="M299.069 212.988C300.769 208.288 304.869 205.488 308.769 202.588C313.869 198.788 318.369 195.588 324.869 194.988C328.769 194.688 330.069 199.688 327.869 202.188C324.269 206.088 319.969 207.888 315.269 210.188C310.769 212.388 306.369 215.488 301.169 215.688C299.869 215.788 298.669 214.288 299.069 212.988Z" fill="#FFBE55"/>
<path id="Vector_23" d="M242.169 139.188C245.069 134.688 248.169 131.588 252.569 128.488C255.169 126.588 259.369 129.788 258.169 132.788C256.169 137.688 253.969 141.488 250.269 145.388C247.169 148.688 243.869 152.888 239.469 154.288C237.869 154.788 236.069 153.388 236.169 151.788C236.369 147.188 239.669 142.988 242.169 139.188Z" fill="#FFBE55"/>
<path id="Vector_24" d="M56.169 356.988C50.969 356.988 46.469 361.988 42.669 365.288C38.069 369.188 32.369 373.188 30.669 379.188C29.569 383.188 33.269 386.588 37.169 385.688C42.769 384.388 46.769 379.388 50.469 375.288C54.169 371.288 59.869 366.688 60.169 360.988C60.269 358.788 58.269 356.988 56.169 356.988Z" fill="#FFBE55"/>
<path id="Vector_25" d="M31.669 281.388C28.369 277.888 22.569 278.288 17.969 277.888C12.069 277.388 6.06903 276.788 1.36903 280.788C-1.13097 282.788 0.169035 286.288 2.26903 287.888C6.76903 291.288 12.769 289.988 17.969 289.588C22.369 289.188 28.469 289.288 31.669 285.688C32.769 284.388 32.869 282.588 31.669 281.388Z" fill="#FFBE55"/>
<path id="Vector_26" d="M42.369 212.988C40.669 208.288 36.569 205.488 32.669 202.588C27.569 198.788 23.069 195.588 16.569 194.988C12.669 194.688 11.369 199.688 13.569 202.188C17.169 206.088 21.469 207.888 26.169 210.188C30.669 212.388 35.069 215.488 40.269 215.688C41.569 215.788 42.869 214.288 42.369 212.988Z" fill="#FFBE55"/>
<path id="Vector_27" d="M99.269 139.188C96.369 134.688 93.269 131.588 88.869 128.488C86.269 126.588 82.069 129.788 83.269 132.788C85.269 137.688 87.469 141.488 91.169 145.388C94.269 148.688 97.569 152.888 101.969 154.288C103.569 154.788 105.369 153.388 105.269 151.788C105.069 147.188 101.769 142.988 99.269 139.188Z" fill="#FFBE55"/>
<path id="Vector_28" d="M160.869 98.2881C163.069 96.4881 166.569 96.3881 168.069 99.1881C171.069 104.588 168.169 111.288 167.169 116.988C166.869 118.688 167.269 129.288 163.069 127.888C158.469 126.388 158.369 119.288 157.869 115.288C157.069 109.788 156.169 102.188 160.869 98.2881Z" fill="#FFBE55"/>
</g>
</g>
</g>
<defs>
<clipPath id="clip0">
<rect width="500" height="500" fill="white"/>
</clipPath>
</defs>
</svg>
