<svg width="3019" height="3486" viewBox="0 0 3019 3486" fill="none" xmlns="http://www.w3.org/2000/svg">
<g id="steps 2">
<path id="XMLID 14276" d="M959.8 2595.3H487.3L169.2 2283.4H641.7L959.8 2595.3Z" fill="#FFDFB0"/>
<path id="XMLID 14277" d="M1432.2 2412.2H959.8L641.7 2100.4H1114.1L1432.2 2412.2Z" fill="#FFDFB0"/>
<path id="XMLID 14280" d="M1904.7 2229.1H1432.2L1114.1 1917.3H1586.6L1904.7 2229.1Z" fill="#FFDFB0"/>
<path id="XMLID 14283" d="M2377.2 2046H1904.7L1586.6 1734.2H2059L2377.2 2046Z" fill="#FFDFB0"/>
<path id="XMLID 14292" d="M2849.6 1863H2377.2L2059 1551.1H2531.5L2849.6 1863Z" fill="#FFDFB0"/>
<path id="XMLID 14278" d="M641.7 2283.4V2100.4L959.8 2412.2V2595.3L641.7 2283.4Z" fill="#D38E2A"/>
<path id="XMLID 14279" d="M1114.1 2100.4V1917.3L1432.2 2229.1V2412.2L1114.1 2100.4Z" fill="#D38E2A"/>
<path id="XMLID 14281" d="M1586.6 1917.3V1734.2L1904.7 2046V2229.1L1586.6 1917.3Z" fill="#D38E2A"/>
<path id="XMLID 14290" d="M2059 1734.2V1551.1L2377.2 1863V2046L2059 1734.2Z" fill="#D38E2A"/>
<path id="XMLID 14286" d="M487.3 2595.3V3245.7L169.2 2933.9V2283.4L487.3 2595.3Z" fill="#D38E2A"/>
<path id="XMLID 14300" d="M959.8 2595.3H487.3V3245.7H959.8V2595.3Z" fill="#FEBE58"/>
<path id="XMLID 14302" d="M1432.3 2412.2H959.8V3245.7H1432.3V2412.2Z" fill="#FEBE58"/>
<path id="XMLID 14303" d="M1904.7 2229.1H1432.2V3245.7H1904.7V2229.1Z" fill="#FEBE58"/>
<path id="XMLID 14305" d="M2849.7 1863H2377.2V3245.7H2849.7V1863Z" fill="#FEBE58"/>
<path id="XMLID 14297" d="M396 2283.4L714.1 2595.3H959.8L641.7 2283.4H396Z" fill="#FFCF8F"/>
<path id="XMLID 14359" d="M867.8 2100.4L1186 2412.2H1431.6L1113.5 2100.4H867.8Z" fill="#FFCF8F"/>
<path id="XMLID 14363" d="M1340.9 1917.3L1659 2229.1H1904.7L1586.6 1917.3H1340.9Z" fill="#FFCF8F"/>
<path id="XMLID 14366" d="M1813.4 1734.2L2131.5 2046H2377.2L2059 1734.2H1813.4Z" fill="#FFCF8F"/>
<g id="right-foot">
<path id="Vector" d="M2308.9 946.7C2312.9 948 2541.6 1179.2 2536.4 1220.8C2531.3 1262.3 2368.5 1569.9 2368.5 1569.9L2252.4 1512.6L2361.3 1242.9L2359.9 1226.2L2226.8 1117.1L2233.9 941.7L2308.9 946.7Z" fill="#1E0F00"/>
<path id="Vector_2" d="M2224.8 1633.7L2251.2 1564.9L2319.2 1587.7C2319.2 1587.7 2358.8 1637.9 2380.2 1645.4C2401.6 1652.9 2410.8 1694.9 2386.5 1696.8C2362.3 1698.6 2224.8 1633.7 2224.8 1633.7Z" fill="#00ADB5"/>
<path id="Vector_3" d="M2276.5 1511.7L2250.3 1567.4L2315.9 1595.7L2346 1537.2L2276.5 1511.7Z" fill="#FF9A6C"/>
</g>
<g id="left-foot">
<path id="Vector_4" d="M2259.6 992.2C2256.9 996.2 2217.3 1359.5 2206.7 1378.3C2196.1 1397.1 2037.1 1707.2 2037.1 1707.2L1919 1659.6L2063.1 1318.8L2046.7 996.2L2055.6 905.1L2233.9 941.7L2259.6 992.2Z" fill="#1E0F00"/>
<g id="Group 1">
<path id="Vector_5" d="M1879.8 1759.2L1914.4 1694.1L1979.1 1725C1979.1 1725 2012.3 1779.7 2032.7 1789.7C2053 1799.7 2057 1842.5 2032.7 1841.4C2008.3 1840.3 1879.8 1759.2 1879.8 1759.2Z" fill="#00ADB5"/>
<g id="Group 2">
<path id="Vector_6" d="M1940.3 1645.4L1911.4 1699.7L1975.5 1731.3L2008.5 1674.3L1940.3 1645.4Z" fill="#FF9A6C"/>
</g>
</g>
</g>
<g id="upperbody">
<g id="Group">
<g id="Group_2">
<path id="Vector_7" d="M2398.9 643.119L2369.7 788.119L2345.9 990.419C2345.9 990.419 2247.8 976.719 2206 963.519C2157.5 948.219 2052 935.119 2052 935.119L2069.8 952.719C2032.1 942.119 2008 906.119 2008 906.119C2073 845.819 2128.5 721.719 2128.5 721.719L2178 476.119C2178 476.119 2185.5 441.519 2190 426.119C2194.5 410.719 2269.6 361.019 2280 354.719L2286.5 351.619L2288.6 331.919L2296.3 327.319L2377.6 401.119C2393.4 415.519 2403.5 435.119 2405.9 456.319C2408.4 478.719 2410.7 510.819 2409.4 548.719C2408.6 577.419 2398.9 643.119 2398.9 643.119Z" fill="#00ADB5"/>
</g>
</g>
<g id="Group_3">
<path id="Vector_8" d="M2343.1 391.919C2343.1 391.919 2386 414.919 2393.5 434.519C2400.9 454.019 2378.8 668.219 2378.8 668.219L2533 671.119L2533.5 763.019C2533.5 763.019 2288.6 782.419 2279 769.119C2266.1 751.219 2251.1 583.819 2251.1 583.819L2245.5 463.419C2245.6 463.319 2259.8 371.519 2343.1 391.919Z" fill="#00ADB5"/>
</g>
<g id="Group_4" opacity="0.3">
<g id="Group_5" opacity="0.3">
<path id="Vector_9" opacity="0.3" d="M2369.6 788.119C2348.8 794.819 2329.6 795.919 2307.9 793.919C2286.2 791.919 2264.1 780.019 2255.9 759.819C2249.6 744.319 2252.2 726.919 2251.3 710.219C2250.5 695.719 2246.9 681.519 2244.7 667.219C2242.5 652.919 2249.9 626.519 2254.7 612.819C2254.7 612.819 2260.2 712.219 2275.8 754.019C2277.9 759.719 2280.6 765.419 2285.3 769.219C2290.8 773.619 2298.4 774.019 2305.5 774.819C2325.2 776.919 2372.6 773.419 2372.6 773.419" fill="black"/>
</g>
</g>
<g id="Group_6">
<path id="Vector_10" d="M2177.4 497.119C2177.4 497.119 2097.2 602.019 2087.4 630.619C2077.6 659.219 2085.2 700.219 2101.5 719.919C2117.8 739.519 2131 731.519 2131 731.519L2177.4 497.119Z" fill="#00ADB5"/>
</g>
<g id="Group_7" opacity="0.3">
<g id="Group_8" opacity="0.3">
<path id="Vector_11" opacity="0.3" d="M2113 812.919C2100.3 835.619 2087.2 858.719 2067.8 876.019C2061 882.119 2053.3 887.519 2048.1 895.119C2042.9 902.619 2040.6 913.219 2045.6 920.919C2047.3 923.619 2050.4 926.019 2053.6 925.219C2055.8 924.719 2057.4 922.819 2058.8 921.019C2082.9 889.919 2101.1 854.219 2112.1 816.419" fill="black"/>
</g>
</g>
<g id="Group_9" opacity="0.3">
<g id="Group_10" opacity="0.3">
<path id="Vector_12" opacity="0.3" d="M2123.6 731.119C2112.6 723.219 2108.8 708.219 2110.4 694.819C2112 681.419 2118.2 669.019 2123.7 656.719C2140.9 618.519 2152.6 583.919 2162.8 542.119L2170.6 513.019L2130.9 720.619L2123.6 731.119Z" fill="black"/>
</g>
</g>
<g id="Group_11">
<g id="Group_12">
<path id="Vector_13" d="M2531 681.819C2531 681.819 2564.3 656.619 2572.4 655.119C2578.6 653.919 2615.7 654.619 2632.8 654.919C2639.4 655.019 2645.1 660.219 2645 666.819C2645 667.219 2645 667.619 2644.9 668.019C2643.6 674.919 2636.8 676.419 2636.8 676.419C2636.8 676.419 2645.6 678.919 2645.8 688.619C2645.9 698.219 2634.3 700.319 2634.3 700.319C2634.3 700.319 2635 700.819 2636 701.819C2642.4 708.219 2639.1 719.119 2630.4 721.119L2625.1 722.319C2625.1 722.319 2632.2 725.319 2632.1 731.919C2631.9 744.619 2603.4 747.019 2603.4 747.019C2603.4 747.019 2532.9 758.219 2531.4 757.719C2529.8 757.019 2531 681.819 2531 681.819Z" fill="#FFBF9D"/>
</g>
<g id="Group_13">
<path id="Vector_14" d="M2626.2 639.919C2625.9 644.119 2624.9 653.019 2617.8 657.019L2578.5 655.519C2578.5 655.519 2607.8 645.419 2611.9 640.419C2613.4 638.719 2615.4 636.519 2617.5 634.919C2621.3 632.119 2626.6 635.319 2626.2 639.919Z" fill="#FFBF9D"/>
</g>
</g>
<g id="Group_14">
<path id="Vector_15" d="M2083.2 954.819C2069.3 953.619 2056.2 945.319 2049.1 933.319C2048.3 931.919 2047.6 930.119 2048.7 928.919C2049.4 928.119 2050.6 928.019 2051.7 928.019C2062.7 927.919 2073.7 929.819 2084 933.519C2085.2 933.919 2086.5 934.519 2086.9 935.719C2087.2 936.519 2087 937.519 2086.8 938.419C2085.4 943.719 2084 949.019 2082.7 954.419" fill="#00ADB5"/>
</g>
<g id="Group_15" opacity="0.4">
<g id="Group_16" opacity="0.4">
<path id="Vector_16" opacity="0.4" d="M2083.2 954.819C2069.3 953.619 2056.2 945.319 2049.1 933.319C2048.3 931.919 2047.6 930.119 2048.7 928.919C2049.4 928.119 2050.6 928.019 2051.7 928.019C2062.7 927.919 2073.7 929.819 2084 933.519C2085.2 933.919 2086.5 934.519 2086.9 935.719C2087.2 936.519 2087 937.519 2086.8 938.419C2085.4 943.719 2084 949.019 2082.7 954.419" fill="black"/>
</g>
</g>
<g id="Group_17">
<path id="Vector_17" d="M2414.9 399.019C2414.9 399.019 2431.1 453.319 2426.6 450.219C2422.1 447.119 2412.5 438.519 2412.5 438.519L2414.9 399.019Z" fill="#ECECEC"/>
</g>
<g id="Group_18">
<path id="Vector_18" d="M2414 424.019L2422.8 445.119C2423.7 447.319 2424.2 449.619 2424.5 451.919C2425.2 457.819 2426.1 468.719 2422.6 469.419C2417.7 470.419 2413.1 465.519 2413.1 465.519L2414 424.019Z" fill="#1E0F00"/>
</g>
<path id="Vector_19" d="M2317 387.576L2336.7 350.276C2336.7 350.276 2345.9 319.976 2336.7 299.576C2327.5 279.176 2315.4 235.476 2328.9 190.476C2342.4 145.376 2374 125.676 2412 120.076C2450 114.476 2500.4 131.376 2513.7 155.976C2527 180.576 2528.4 212.476 2523.2 234.676C2518.9 253.076 2532.8 282.276 2537.1 290.676C2541.3 299.076 2523.7 306.176 2523.7 306.176C2523.7 306.176 2525.7 363.976 2492.9 365.576C2460.1 367.176 2451.8 360.476 2442.3 370.676C2432.8 380.876 2402.7 446.376 2402.7 446.376L2317 387.576Z" fill="#FF9A6C"/>
<path id="Vector_20" d="M2487.1 362.719C2472 370.519 2427.7 341.419 2425.2 357.419C2423.2 369.819 2397.7 423.119 2386.5 446.219L2386.7 446.419C2386.7 446.419 2416.8 380.919 2426.3 370.719C2435.8 360.519 2444.2 367.219 2476.9 365.619C2483.2 365.319 2488.2 362.919 2492.1 359.319C2490.2 360.819 2488.4 362.019 2487.1 362.719Z" fill="#EA8057"/>
<path id="Vector_21" d="M2324.4 330.019C2324.4 330.019 2355.2 337.419 2361.7 337.419C2368.2 337.419 2380.7 290.919 2380.7 290.919C2380.7 290.919 2362.8 284.419 2357.5 262.919C2352.2 241.419 2367.2 236.419 2374.7 239.919C2382.2 243.419 2387.2 253.919 2387.2 253.919C2387.2 253.919 2420.3 294.419 2426.3 227.419C2432.3 160.419 2481.2 183.919 2498.2 187.919C2515.2 191.919 2523.7 181.719 2519.7 164.919C2510.7 127.419 2486.7 100.919 2397.2 112.919C2307.7 124.919 2320.2 163.419 2320.2 163.419C2320.2 163.419 2292 198.419 2300.1 239.919C2308.2 281.419 2329.1 315.519 2324.4 330.019Z" fill="#1E0F00"/>
<g id="Group_19">
<path id="Vector_22" d="M2414.9 399.019L2409.9 575.519L2300.1 339.119L2302.8 317.219L2414.9 399.019Z" fill="#ECECEC"/>
</g>
<g id="Group_20">
<path id="Vector_23" d="M2361.7 537.019C2361.7 537.019 2340.1 525.919 2328.3 498.719C2314.9 467.719 2286 432.319 2261.9 423.419C2237.8 414.519 2182.1 408.319 2143.6 433.419L2118.9 466.719L2150.9 487.519C2150.9 487.519 2176.2 473.619 2207.3 464.919C2247.1 453.819 2271.3 466.319 2294.4 488.219C2295.8 489.619 2297.2 490.919 2298.3 492.219C2304.1 498.819 2320.3 514.219 2334.9 524.619C2346.3 532.719 2356.5 537.119 2361.7 537.019Z" fill="#0E538D"/>
<g id="Group_21">
<path id="Vector_24" d="M2139.7 427.319C2139.7 427.319 2226.2 393.519 2274.1 423.419C2322 453.219 2330.7 500.819 2359.3 500.819C2414.9 500.819 2413.2 461.519 2413.2 461.519L2425 465.119C2425.2 473.119 2437.9 530.819 2379.3 538.019C2320.7 545.219 2296 465.219 2243.3 465.119C2190.6 465.019 2150.5 493.619 2150.5 493.619L2112.6 469.619L2139.7 427.319Z" fill="#1E0F00"/>
</g>
</g>
</g>
<path id="XMLID 14304" d="M2377.5 2041H1905V3240.7H2377.5V2041Z" fill="#FEBE58"/>
</g>
</svg>
